<svg id="Capa_1" data-name="Capa 1" xmlns="http://www.w3.org/2000/svg" viewBox="0 0 79.43 90"><defs><style>.cls-1{fill:#2565ae;fill-rule:evenodd;}</style></defs><title>LOGO WEB - Escudo </title><path class="cls-1" d="M32.69,37.18a2.69,2.69,0,0,0-2.53,1.47.18.18,0,0,0,.09.24h.1l.49-.12a2,2,0,0,1,1.2-.62,1.07,1.07,0,1,0,1.77.72h0a.92.92,0,0,0-.15-.51,1.54,1.54,0,0,1,.75.65.18.18,0,0,0,.16.1h.54a.2.2,0,0,0,.18-.2s0,0,0,0A2.64,2.64,0,0,0,32.69,37.18Z"/><path class="cls-1" d="M29.31,37.32H30a4.17,4.17,0,0,1,2.74-1,4.27,4.27,0,0,1,2.41.7.18.18,0,0,0,.25-.05.2.2,0,0,0,0-.11V35.54a.2.2,0,0,0-.11-.17A5.82,5.82,0,0,0,29.18,37a.18.18,0,0,0,0,.25A.21.21,0,0,0,29.31,37.32Z"/><path class="cls-1" d="M40.6,37.18A2.64,2.64,0,0,0,38,38.84a.18.18,0,0,0,.13.23h.58a.18.18,0,0,0,.16-.1,1.58,1.58,0,0,1,.75-.65,1,1,0,0,0,.82,1.55.93.93,0,0,0,.33,0,1,1,0,0,0,.72-.72,1,1,0,0,0-.23-1,2,2,0,0,1,1.2.62l.49.12a.17.17,0,0,0,.21-.14.14.14,0,0,0,0-.11A2.71,2.71,0,0,0,40.6,37.18Z"/><path class="cls-1" d="M38.2,37a4.4,4.4,0,0,1,5.14.25H44a.18.18,0,0,0,.18-.18.22.22,0,0,0-.05-.12,5.65,5.65,0,0,0-1.54-1.21A5.39,5.39,0,0,0,38,35.32a.18.18,0,0,0-.12.17v1.32a.2.2,0,0,0,.13.24A.23.23,0,0,0,38.2,37Z"/><path class="cls-1" d="M21.56,25.62a.33.33,0,0,1,.16-.43,7.93,7.93,0,0,1,3.89-.82,9.07,9.07,0,0,0,4.9-1.27,6.84,6.84,0,0,0,3.12-3.48,6.18,6.18,0,0,1,2.78-3.1,8.11,8.11,0,0,1,4.48-1.15A9.29,9.29,0,0,0,45,14.53a.33.33,0,0,1,.46.14s0,0,0,0L46.76,18a.34.34,0,0,1-.17.43,8.43,8.43,0,0,1-3.89.85,9,9,0,0,0-4.9,1.28A6.88,6.88,0,0,0,34.69,24a6.24,6.24,0,0,1-2.81,3.12,8.13,8.13,0,0,1-4.51,1.17,8.93,8.93,0,0,0-4.1.84A.35.35,0,0,1,22.8,29h0ZM73.1,50.34a5.41,5.41,0,0,1-1.94,1.83,1.74,1.74,0,0,0-.25-.29,1.31,1.31,0,0,0-.35-.27,1.43,1.43,0,0,0-.34-.14H70v-.12a4.46,4.46,0,0,1,.07-.51v-.06a4.42,4.42,0,0,1,.14-.52,3.75,3.75,0,0,1,.17-.47,6.53,6.53,0,0,1,.35-.7l.09-.16c.08-.12.17-.24.26-.35a4.93,4.93,0,0,1,2.39-1.81.35.35,0,0,1,.45.23.19.19,0,0,1,0,.07,5,5,0,0,1-.82,3.27Zm-.93,3.77a.38.38,0,0,1,.43.33v0a5.2,5.2,0,0,1-1.32,3.1,5.26,5.26,0,0,1-2.2,1.52,1.38,1.38,0,0,0-.2-.33,1.57,1.57,0,0,0-.31-.32h0a2.61,2.61,0,0,0-.28-.17h-.06a.44.44,0,0,0-.16-.06,5.5,5.5,0,0,1,.65-1.61c.14-.21.29-.42.45-.62l.12-.15a2.5,2.5,0,0,1,.23-.23.27.27,0,0,1,.07-.08,5,5,0,0,1,2.61-1.39Zm-2.36,7a.36.36,0,0,1,.36.36.13.13,0,0,0,0,.06,5,5,0,0,1-1.7,2.94,5.42,5.42,0,0,1-2.4,1.18,1.68,1.68,0,0,0-.4-.71,2.16,2.16,0,0,0-.33-.27l-.16-.08a5,5,0,0,1,.88-1.48,3.64,3.64,0,0,1,.54-.57l.13-.12c.11-.09.23-.17.34-.27a5.07,5.07,0,0,1,2.8-1ZM66.4,67.79a.34.34,0,0,1,.3.38.31.31,0,0,1,0,.08,5.14,5.14,0,0,1-2.22,2.56,5.4,5.4,0,0,1-2.56.75,1.55,1.55,0,0,0-.08-.36,1.25,1.25,0,0,0-.2-.4,1.38,1.38,0,0,0-.28-.31l-.15-.11a5.5,5.5,0,0,1,1.12-1.33c.2-.16.41-.31.63-.46l.15-.09a2.75,2.75,0,0,1,.38-.2h0a4.87,4.87,0,0,1,2.93-.51Zm-5.34,4v.14a.88.88,0,0,1-.24.39.77.77,0,0,1-.48.2h-.2a.4.4,0,0,1-.18-.07h0a.91.91,0,0,1-.16-.11,1.09,1.09,0,0,1-.13-.17h0a.5.5,0,0,1-.08-.2.33.33,0,0,1,0-.14.73.73,0,0,1,.08-.38.82.82,0,0,1,.31-.33l.12-.06a1,1,0,0,1,.24,0h0a.49.49,0,0,1,.17,0,.44.44,0,0,1,.19.07.86.86,0,0,1,.18.14.61.61,0,0,1,.12.16.35.35,0,0,1,.06.14h0a.61.61,0,0,1,0,.19v.1Zm-1.82-4.56a6.25,6.25,0,0,0,0,3.27,1.61,1.61,0,0,0-.56,1.3,1.55,1.55,0,0,0,.14.6,27.56,27.56,0,0,1-15.65,8.46,1.55,1.55,0,0,0-.07-.23c5.27-1.52,10-6.46,13.28-13.71a4.74,4.74,0,0,0,3.1-.34,5,5,0,0,0-.22.65ZM35.06,68.9a4.84,4.84,0,0,1-4,4.42h0l1-2.7h0l1.1-.62,1.93-1.09Zm1.78-.79-.92.44V68.4l.84-.47A1.42,1.42,0,0,1,36.84,68.11Zm5.87,11.75c5.09-1.38,9.65-6.15,12.86-13.21a4.86,4.86,0,0,1-2.4-2.37,4.62,4.62,0,0,1-.36-3.79.44.44,0,0,1,.49-.25,4.26,4.26,0,0,1,1.27.61l2.32-5.42-1.09.11h0l-1.54.2-.84.14c-1.66.27-3.3.61-4.92,1-1.16.3-2.3.64-3.44,1a.33.33,0,0,1,.14,0l1.19.67a.36.36,0,0,1,.13.49l0,0-1.77,2.57a.33.33,0,0,1-.39.13c-.67-.23-2.59-.63-4,1.75h0l.51,1h0c.14-.08,3.62-2.08,4.82-2.72A6,6,0,0,1,50,61.33a.19.19,0,0,1,.13.22v0A1.91,1.91,0,0,1,50,62a.17.17,0,0,1-.22.13h0a5.44,5.44,0,0,0-3.7.38c-1.23.66-4.87,2.74-4.87,2.74l.24.46,3.17-1.57A5.69,5.69,0,0,1,49,64a.18.18,0,0,1,.11.24h0a1.37,1.37,0,0,1-.17.43.22.22,0,0,1-.24.12,5.47,5.47,0,0,0-3.72.11l-3.17,1.57h0c.06.11,1.1,2.16,1.13,2.24h0a8.55,8.55,0,0,0,3.73-1.24.18.18,0,0,1,.25.25,7.23,7.23,0,0,1-2.82,2.64l-.28.13,1.35,2.67h0a12.24,12.24,0,0,0,3.84-4h0l-1.67-.75a.19.19,0,0,1-.1-.25.19.19,0,0,1,.1-.1L51.75,67a.2.2,0,0,1,.23.14v.07a12.61,12.61,0,0,1-6.72,9.15c-3.42,1.72-8.32,1.83-11.3-.14a.19.19,0,0,1,0-.27l0,0,3.45-2.8a.17.17,0,0,1,.25,0,.15.15,0,0,1,0,.17l-.39,1.77h0a12.13,12.13,0,0,0,5.47-.71h0L41.06,70.9h0a5.29,5.29,0,0,1-3.83-2.24h0l-1.07.51-.35.15a5.37,5.37,0,0,1-3,4.06,7.53,7.53,0,0,1-2.36.73l-.66.06,1.37-3.7h0s-.54-.25-.81-.39a3.14,3.14,0,0,0-2.25.65.18.18,0,0,1-.25,0h0l-.25-.4a.19.19,0,0,1,.08-.26h0c1.49-.87,2.53-1,3.1-.66l.91.43h0l.63-.35h0l3.56-2h0l.6-.35h0a5.32,5.32,0,0,1,.64-3.88h0l-.84-1.67A57.8,57.8,0,0,0,25,69.2c3.09,5.62,7.13,9.4,11.53,10.63a3.67,3.67,0,0,1,5.08-1.06,3.82,3.82,0,0,1,1.06,1.06ZM42,82h0a.67.67,0,0,1,0,.2.09.09,0,0,1,0,.07v0a2.45,2.45,0,0,1-.24.52,2.23,2.23,0,0,1-.94.86l-.22.11h0l-.22.07h0a2.74,2.74,0,0,1-.5.08h-.41a2.5,2.5,0,0,1-1-.28,2.37,2.37,0,0,1-.91-.92,1,1,0,0,1-.12-.23h0a.23.23,0,0,0-.06-.19h0a1.13,1.13,0,0,1,0-.26h0a1.31,1.31,0,0,1,0-.28,1.82,1.82,0,0,1,0-.33v0a.51.51,0,0,1,.08-.33V81a2.32,2.32,0,0,1,.22-.41,1.31,1.31,0,0,1,.3-.36,2.39,2.39,0,0,1,1.69-.7,2.44,2.44,0,0,1,1.71.7,2,2,0,0,1,.29.36,2.32,2.32,0,0,1,.22.41v.09a.51.51,0,0,0,.08.33v0a1.82,1.82,0,0,1,0,.33v.29Zm-5.87-1.16.06-.22c-4.56-1.3-8.68-5.11-11.83-10.82-1.13,1-2.21,2.07-3.26,3.18a27.35,27.35,0,0,0,15,7.86ZM19.73,65.11a.4.4,0,0,1,.34-.42,2.25,2.25,0,0,1,1.46.29,4.47,4.47,0,0,1,1.74,2.19.36.36,0,0,1-.18.49.42.42,0,0,1-.22,0,4.63,4.63,0,0,1-2.54-1.22,2.28,2.28,0,0,1-.6-1.37Zm0,6.88h0a.61.61,0,0,1-.13.22l-.06.07a.91.91,0,0,1-.57.21.77.77,0,0,1-.48-.2.9.9,0,0,1-.25-.39v-.43a.77.77,0,0,1,.07-.16l.12-.16a1.33,1.33,0,0,1,.19-.14.88.88,0,0,1,.36-.1h.23l.13.06a.82.82,0,0,1,.31.33.84.84,0,0,1,.08.38V72Zm-1.8-1.5a1.7,1.7,0,0,0-.29.31,1.47,1.47,0,0,0-.19.4,1.55,1.55,0,0,0-.08.36,5.4,5.4,0,0,1-2.56-.75,5.1,5.1,0,0,1-2.22-2.56.34.34,0,0,1,.2-.44l.08,0a4.87,4.87,0,0,1,2.93.51c.13.06.25.13.37.2l.15.09a5.64,5.64,0,0,1,.63.46l.09.08c.32.44.65.86,1,1.28a.39.39,0,0,0-.1.08ZM13.4,65.26a1.51,1.51,0,0,0-.14.35,5.6,5.6,0,0,1-2.41-1.14,5.1,5.1,0,0,1-1.75-2.9.37.37,0,0,1,.32-.42h0a5.14,5.14,0,0,1,2.8,1c.11.1.23.18.34.27l.13.12a4.81,4.81,0,0,1,.54.57,1.88,1.88,0,0,1,.18.24l.67,1.26-.13.06a2.16,2.16,0,0,0-.33.27,1,1,0,0,0-.26.36ZM8,57.58a5,5,0,0,1-1.31-3.1A.35.35,0,0,1,7,54.11H7.1a5,5,0,0,1,2.61,1.36l.3.31.11.15a4.44,4.44,0,0,1,.45.62,6.36,6.36,0,0,1,.3.58c.12.31.22.62.33.92v.11l-.17.06h0a2.07,2.07,0,0,0-.32.19,1.83,1.83,0,0,0-.3.32,1.38,1.38,0,0,0-.2.33A5.26,5.26,0,0,1,8,57.54ZM6.17,50.34a5.12,5.12,0,0,1-.83-3.27.37.37,0,0,1,.42-.31h.06a5.09,5.09,0,0,1,2.37,1.77l.25.35.08.16a4.63,4.63,0,0,1,.36.7,3.2,3.2,0,0,1,.24.74l.12.52v.42H9a1.43,1.43,0,0,0-.34.14,2.42,2.42,0,0,0-.36.27,2.17,2.17,0,0,0-.24.29A5.41,5.41,0,0,1,6.13,50.3ZM5.38,43A5,5,0,0,1,5,39.66a.37.37,0,0,1,.49-.19h0a5.11,5.11,0,0,1,2.12,2c.06.13.13.26.2.39l.06.17a3.73,3.73,0,0,1,.26.73,3.87,3.87,0,0,1,.13.59l.06,1.07v0H8.11a1.45,1.45,0,0,0-.41.1,1.41,1.41,0,0,0-.38.21A1.73,1.73,0,0,0,7,45,5.21,5.21,0,0,1,5.35,43Zm.19-7.42a5.12,5.12,0,0,1,0-3.37A.37.37,0,0,1,6.06,32l.05,0a5,5,0,0,1,1.83,2.32l.15.4V35a6.69,6.69,0,0,1,.16.75,5.08,5.08,0,0,1,0,1.74H8.07a1.48,1.48,0,0,0-.42,0,1.62,1.62,0,0,0-.41.17,1.34,1.34,0,0,0-.31.22,5.41,5.41,0,0,1-1.41-2.28Zm1.19-7.31A5.13,5.13,0,0,1,7.26,25a.37.37,0,0,1,.51-.13l.05,0a5.06,5.06,0,0,1,1.49,2.61,3.38,3.38,0,0,0,.09.41.56.56,0,0,1,0,.19,5.11,5.11,0,0,1-.23,2.48H9a1.15,1.15,0,0,0-.37,0,1.65,1.65,0,0,0-.44.1,1.06,1.06,0,0,0-.33.18,5.56,5.56,0,0,1-1.07-2.45ZM9,21.16a5.09,5.09,0,0,1,1-3.22.37.37,0,0,1,.52-.05l.05.05a5,5,0,0,1,1.09,2.74v.61a5.12,5.12,0,0,1-.06.78,5.33,5.33,0,0,1-.54,1.65l-.16-.07a1.2,1.2,0,0,0-.42-.07,1.69,1.69,0,0,0-.45,0,1.38,1.38,0,0,0-.34.12A5.32,5.32,0,0,1,9,21.12Zm3.62,4.76a.37.37,0,0,1,.46.25s0,0,0,.07a5,5,0,0,1-1,3.23,5.25,5.25,0,0,1-2,1.77,1.62,1.62,0,0,0-.1-.18l-.12-.12a6.11,6.11,0,0,0,.3-3.25v-.08a4.87,4.87,0,0,1,2.42-1.69Zm-.09-4.83a.11.11,0,0,0,0-.08,5.1,5.1,0,0,1,2.67-1.31.38.38,0,0,1,.41.35v0a5.07,5.07,0,0,1-1.42,3.06A5.4,5.4,0,0,1,12,24.6l-.09-.2-.1-.14a6.17,6.17,0,0,0,.79-3.17Zm1.25-2.3v.07a.61.61,0,0,1,0,.19.69.69,0,0,1-.16.22.72.72,0,0,1-.24.14.62.62,0,0,1-.53,0,.71.71,0,0,1-.35-.39.68.68,0,0,1,0-.4v-.13a.64.64,0,0,1,.21-.25h0a.35.35,0,0,1,.14-.06.41.41,0,0,1,.22,0h.31l.17.12a.44.44,0,0,1,.08.11s0,0,.06.07v.09a.62.62,0,0,1,0,.27Zm-1.34-3.91a4.67,4.67,0,0,1,1.32-2.71.36.36,0,0,1,.51,0l.05.07a4.47,4.47,0,0,1,.54,2.56v.61a5.8,5.8,0,0,1-.21.82A5.3,5.3,0,0,1,14,17.46l-.09-.05h-.08a.92.92,0,0,0-.32-.1,1.14,1.14,0,0,0-.45,0h-.3a4.82,4.82,0,0,1-.24-2.41Zm3.22.46a5.69,5.69,0,0,1-1.22,2.77v.29a5,5,0,0,0,2.21-1,4.69,4.69,0,0,0,1.71-2.48.37.37,0,0,0-.26-.44H18a4.38,4.38,0,0,0-1.08.14.79.79,0,0,1-.22.06,5.53,5.53,0,0,0-1.2.58v.06ZM16,13.08a.65.65,0,0,1,.3-.37l.18-.07h.34a.7.7,0,0,1,.28.23v.07h0a.29.29,0,0,1,0,.13.51.51,0,0,1,0,.3.66.66,0,0,1-.3.36h0l-.17.06h0a.63.63,0,0,1-.71-.52.51.51,0,0,1,0-.3Zm.61-3.54a4.43,4.43,0,0,1,1.59-2.28.37.37,0,0,1,.52.09l0,.08a4.48,4.48,0,0,1,.09,2.41,1.4,1.4,0,0,1-.1.39,1.19,1.19,0,0,0-.08.2,4.31,4.31,0,0,1-.39.81,4,4,0,0,1-.72.91h0a1.72,1.72,0,0,0-.37-.22,1.65,1.65,0,0,0-.44-.1h-.25a4.6,4.6,0,0,1,.15-2.27Zm2.9.93a5.32,5.32,0,0,1-1.52,2.42v.25a4.78,4.78,0,0,0,2.19-.56,4.4,4.4,0,0,0,2-2,.36.36,0,0,0-.16-.47.45.45,0,0,0-.11,0,4.32,4.32,0,0,0-2.4.39v0Zm.65-2a.82.82,0,0,1,.12-.2.62.62,0,0,1,.17-.11h.23a.51.51,0,0,1,.24.07.52.52,0,0,1,.29.34.38.38,0,0,1,0,.15.48.48,0,0,1-.07.26v.07a.51.51,0,0,1-.34.21h-.11a.55.55,0,0,1-.39-.16.54.54,0,0,1-.17-.4.61.61,0,0,1,0-.19Zm1.17-3.19a4.13,4.13,0,0,1,1.77-1.81.37.37,0,0,1,.49.18l0,.1a4.08,4.08,0,0,1-.32,2.1,3.54,3.54,0,0,1-.16.34c0,.08-.09.14-.13.21a4.22,4.22,0,0,1-.6.79,3.38,3.38,0,0,1-.64.55A1.52,1.52,0,0,0,21,7.28h-.2a4.37,4.37,0,0,1,.51-2Zm2.53,1.34a5,5,0,0,1-1.79,2v.2a4.36,4.36,0,0,0,2.06-.16,4.18,4.18,0,0,0,2-1.41A.35.35,0,0,0,26,6.7a.24.24,0,0,0-.11-.06,4.05,4.05,0,0,0-2.13-.06h0ZM24.7,5a.49.49,0,0,1,.24-.27.27.27,0,0,1,.15,0h.15a.72.72,0,0,1,.2.09.49.49,0,0,1,.19.35v.13a.43.43,0,0,1-.11.21l-.11.11a.54.54,0,0,1-.35.07h0a.49.49,0,0,1-.37-.57h0Zm1.66-2.78A3.8,3.8,0,0,1,28.16,1a.36.36,0,0,1,.45.24.62.62,0,0,1,0,.13A3.79,3.79,0,0,1,28,3.05l-.22.3-.18.19a3.87,3.87,0,0,1-1.29.94,1.33,1.33,0,0,0-.6-.55h-.13a4.21,4.21,0,0,1,.8-1.68Zm3.86,2a3.82,3.82,0,0,0-1.79-.38h0a4.81,4.81,0,0,1-2,1.45.09.09,0,0,1,0,.07v.07a4,4,0,0,0,1.84.2,3.69,3.69,0,0,0,2-.84.34.34,0,0,0,0-.49.31.31,0,0,0-.11-.09Zm-.64-1.88h.06a.44.44,0,0,1,.49,0,.38.38,0,0,1,.13.09.47.47,0,0,1,0,.58.36.36,0,0,1-.07.1.45.45,0,0,1-.35.13.53.53,0,0,1-.33-.15.48.48,0,0,1,0-.68h0ZM9.65,25a.78.78,0,0,0,.08.52.79.79,0,0,0,.48.38.86.86,0,0,0,.59-.07.9.9,0,0,0,.28-.27.68.68,0,0,0,.12-.44.33.33,0,0,0,0-.14.62.62,0,0,0-.07-.23h0a.71.71,0,0,0-.1-.14.66.66,0,0,0-.17-.12.9.9,0,0,0-.21-.08.49.49,0,0,0-.17,0h-.17a.71.71,0,0,0-.18.08h0a.16.16,0,0,0-.08.06l-.11.08a.84.84,0,0,0-.19.33v.08Zm1.91,7.63A5,5,0,0,1,11.08,36a5.44,5.44,0,0,1-1.75,2,1,1,0,0,0-.13-.16l-.13-.1a6.12,6.12,0,0,0-.16-3.26V34.4a5,5,0,0,1,2.17-2,.37.37,0,0,1,.49.19s0,0,0,.06ZM8.37,45.31H8.16a.62.62,0,0,0-.19.07l-.15.09a.86.86,0,0,0-.13.14l-.06.08-.06.13a.86.86,0,0,0,0,.45.76.76,0,0,0,1,.56,1,1,0,0,0,.21-.09h0a.65.65,0,0,0,.16-.17.83.83,0,0,0,.16-.36A.88.88,0,0,0,9,45.76l-.08-.12a.44.44,0,0,0-.16-.17h0l-.14-.08h-.2Zm-.26-12.8a.8.8,0,0,0,.53.3.75.75,0,0,0,.58-.16.81.81,0,0,0,.24-.31l.06-.21a.45.45,0,0,0,0-.23.33.33,0,0,0,0-.14.53.53,0,0,0-.11-.21h0l-.12-.11a1.18,1.18,0,0,0-.19-.11H8.52a.56.56,0,0,0-.17.09l-.07.06-.1.11a.93.93,0,0,0-.13.35V32a.81.81,0,0,0,.16.5Zm.46,5.92a.42.42,0,0,0-.14-.09.7.7,0,0,0-.2-.08H7.81a.46.46,0,0,0-.16.07l-.15.12a.08.08,0,0,1-.06.07l-.08.12a.76.76,0,0,0-.08.36.11.11,0,0,0,0,.08.76.76,0,0,0,.78.7.83.83,0,0,0,.56-.23.8.8,0,0,0,.19-.35.74.74,0,0,0,0-.21.49.49,0,0,0,0-.24.29.29,0,0,0,0-.13.62.62,0,0,0-.14-.18h-.1Zm2.35.88a4.79,4.79,0,0,1,.2,2.46l-.09.41h0a2.8,2.8,0,0,1-.13.41v.07A5.41,5.41,0,0,1,9.46,45l-.15-.15h0l-.09-.06v-.36a2.29,2.29,0,0,0,0-.37,5.63,5.63,0,0,0-.1-.92h0a1.7,1.7,0,0,0-.1-.42,6.46,6.46,0,0,0-.46-1.2.09.09,0,0,0,0-.07,5,5,0,0,1,1.9-2.24.36.36,0,0,1,.5.11l0,.07ZM11.68,43a6.19,6.19,0,0,1-1,1.88,1.35,1.35,0,0,1,.26-.15.43.43,0,0,1,.5.1,5.52,5.52,0,0,1,1,4.69,60.59,60.59,0,0,1,13.7-5.22.74.74,0,0,0,.56-.7V43a.36.36,0,0,0-.35-.37H11.8a1.08,1.08,0,0,1-.1.35ZM24.8,41.23a12.44,12.44,0,0,0,1.7.54h-3a5.16,5.16,0,0,0-.67-.2,4.71,4.71,0,0,0-2.58.09c-.18.05-.34.08-.5.11H18.15a.9.9,0,0,1-.49-.26c2.92.1,3-1.92,7.16-.28ZM18,36.65l9.42,4.57a.17.17,0,0,1,.09.17c0,.14-.1,1.1-.11,1.24H49c.19-1.29.33-2.6.43-3.91v-.06a.35.35,0,0,1,.35-.34h1.77l2.77-2L54,35.53l-3.31,1.84a.2.2,0,0,1-.25-.07c-.09-.18-.22-.39-.31-.56a.12.12,0,0,1,0-.16,6,6,0,0,1,1.3-1.31h0a1,1,0,0,1-.67-.83v-.12a11.16,11.16,0,0,0-1.23,1.15.19.19,0,0,1-.26,0c-.12-.16-.25-.32-.38-.47a.23.23,0,0,1,0-.2l1.23-2.54A.87.87,0,0,1,50,30.89a1.08,1.08,0,0,1-.5-.42l-1.86,3a.17.17,0,0,1-.24,0l0,0-.51-.39a.13.13,0,0,1-.06-.14,9.8,9.8,0,0,1,1.36-3,10.74,10.74,0,0,0,1.42-3.63c.07-.37.13-.69.17-1L49,23.47a14.94,14.94,0,0,1-.64,2.47,24.43,24.43,0,0,1-2.13,4.47c-.3.54-.55,1-.81,1.54a.19.19,0,0,1-.26.1h0l-.52-.25a.18.18,0,0,1-.11-.19l1.2-7.41c-.34,0-.66.05-1,.06-.69,2.8-1.3,5.29-1.7,6.81a.18.18,0,0,1-.19.12,6.23,6.23,0,0,0-.62-.15.15.15,0,0,1-.11-.17c.08-.71.47-3.82.53-6.42a8.26,8.26,0,0,0-1.39.42A20.37,20.37,0,0,1,40.58,28,12.91,12.91,0,0,0,40,30.64a.17.17,0,0,1-.15.15h-.64a.18.18,0,0,1-.18-.16l-.44-4.1a6.88,6.88,0,0,0-1.38,2.07c-.13.27-.26.55-.42.83V31a.19.19,0,0,1-.14.18,5.5,5.5,0,0,0-.58.16.19.19,0,0,1-.23-.13,1.46,1.46,0,0,0-.09-.36,7.43,7.43,0,0,1-1.68,1.27l-.24.14h0l-.55.33a.2.2,0,0,1-.15,0,8.68,8.68,0,0,1-1.72.57l.16.56a.17.17,0,0,1,0,.17l-.43.41a.19.19,0,0,1-.27,0l0,0-.56-.94-1.06,0h-.5c.54,1.1,1,2,1.13,2.27a.15.15,0,0,1,0,.13c-.1.13-.24.34-.35.51a.19.19,0,0,1-.27,0l0,0-2.47-2.61c-.26.08-.54.17-.83.28l2.77,3.54a.19.19,0,0,1,0,.18c-.07.14-.15.33-.21.47a.18.18,0,0,1-.25.09.05.05,0,0,1,0,0A20.27,20.27,0,0,0,25.11,36a22,22,0,0,0-2.67-1.2,22.32,22.32,0,0,1-2.73-1.23l-1-.56a6.74,6.74,0,0,0,.73.78,13.28,13.28,0,0,0,2.76,1.59A13.31,13.31,0,0,1,25.08,37a19.28,19.28,0,0,1,2.86,2.48v.05s-.08.29-.11.43a.18.18,0,0,1-.21.14h0l-9.54-3.46Zm10.11-2.46-.64-.66.35-.05C28,33.9,28.15,34.19,28.15,34.19Zm12.33-9-.44.25a5.82,5.82,0,0,0-.71.47l.29,2.63A29.92,29.92,0,0,0,40.48,25.19Zm3.59-.92a3.65,3.65,0,0,0-.86.07c0,1.46-.22,3.46-.31,4.56C43.25,27.55,43.65,26,44.07,24.27ZM20.46,27.11l1.78,2.36L22,28.83Zm7.11-8.41-.76-1.92.56,2,.2-.07Zm3.36-5.34a13.7,13.7,0,0,0,.13,2.48c.08-.14.15-.27.21-.4A14.55,14.55,0,0,1,30.93,13.36ZM43.07,6.8a2.18,2.18,0,0,1,.58,1.32v.26l.25.11a.47.47,0,0,1,.31.29.51.51,0,0,1-.27.67h0a.52.52,0,0,1-.68-.28h0a.61.61,0,0,1,0-.42l.12-.24-.17-.21A2.15,2.15,0,0,1,42.72,7c0-.22.18-.34.32-.16Zm5.27,16.78a8.09,8.09,0,0,1-1.86.54l-.85,5.74a23.5,23.5,0,0,0,2.12-4.11A14.81,14.81,0,0,0,48.34,23.58Zm1.54-4.7a8.32,8.32,0,0,1,1.71-3.26,36.13,36.13,0,0,0-1.26,3.48,9.27,9.27,0,0,0-.49,3.13l-.52-1.29a20.88,20.88,0,0,1,.56-2.06Zm.74,8.64-2.44,3.82s.34-.7.53-1a11.44,11.44,0,0,0,1.49-3.82h0Zm.52,1.3a3,3,0,0,0-.71.21l.48-.78.23.57Zm-.27,2.93h-.1l-.13-.06a.18.18,0,0,1,0-.25s0,0,0,0a1.49,1.49,0,0,1,.81-.3.61.61,0,0,1,.19,0,1.26,1.26,0,0,1,.63.16.18.18,0,0,1,0,.25l0,0a1.51,1.51,0,0,1-.82.29.61.61,0,0,1-.19,0h-.35Zm.15,1a1.61,1.61,0,0,1,.76-.29h.38l.27.06h0l.19.1a.12.12,0,0,1,.07.07h0a.17.17,0,0,1,0,.1.13.13,0,0,1-.06.1,1,1,0,0,1-.31.18.66.66,0,0,1-.2.06h0l-.28,0a1.93,1.93,0,0,1-.34,0h0a1.14,1.14,0,0,1-.25-.06L51,33.1a.18.18,0,0,1,0-.25.12.12,0,0,1,0-.05Zm1.87,2.59-.75.42s.15-.17.35-.37h.09Zm-.37-.71a1.49,1.49,0,0,1-.83-.15.19.19,0,0,1,0-.27l0,0a1.7,1.7,0,0,1,.81-.3,1.32,1.32,0,0,1,.76.13h.07a.18.18,0,0,1,0,.25l0,0a1.41,1.41,0,0,1-.81.3ZM52,29.58h0a2.91,2.91,0,0,1,2.14.85,4,4,0,0,1,.43.49,5.42,5.42,0,0,1,.61,1.2l.06.15.11.26.14.27h0a7.86,7.86,0,0,0,.54.87h0c.68,1,1.65,2.2,2.58,3.31l.26.31h0c.31.36.59.7.87,1H56.05L55.93,38l-.11-.27-.66-1.64L55,35.8,54.29,34l0-.14-.72-1.79-.26-.64-.32-.79c-.12-.29-.41-.38-1.07-.41H50.31a.16.16,0,0,1-.14-.08.19.19,0,0,1,.08-.26h0a3.94,3.94,0,0,1,1.06-.27h.59Zm3.79-9L52.17,28l-.43-1,4-6.36Zm-.13,8.32a6.54,6.54,0,0,1-.56,1.27,5,5,0,0,1,.63,1,6.57,6.57,0,0,0,.51-1.74,7.32,7.32,0,0,1,1.08-2.69,6.1,6.1,0,0,1,1-1.37A5.19,5.19,0,0,0,57,26.54a6.52,6.52,0,0,0-1.36,2.35ZM60.46,32l-3.28,1.81c.09.11.17.23.26.35l3-2.16Zm-.3,4.29c-.31.1-.56.19-.78.28l.2.23a6.44,6.44,0,0,1,.63-.36,7.24,7.24,0,0,1,1-.41c-.36.07-.72.16-1.07.26Zm-5.78,3.53a.93.93,0,0,1-.07.33.63.63,0,0,1-.16.23h0l-.09,0H53.8a.4.4,0,0,1-.15-.14.72.72,0,0,1-.14-.47c0-.36.2-.66.45-.66s.46.3.46.66Zm-1.11-1.69,1.43-1.06.36.88A17.78,17.78,0,0,1,53.27,38.13ZM60,41.22l.15.05h3.56a.37.37,0,0,0,.36-.37V39.5a.37.37,0,0,1,.36-.37h3a.21.21,0,0,1,.11,0,5.93,5.93,0,0,0,.08,3.79.11.11,0,0,0,0,.08H50.25a.36.36,0,0,1-.36-.34s0,0,0-.07h0c.14-1,.27-2.09.36-3.14a.36.36,0,0,1,.36-.33h2.11a1.66,1.66,0,0,0-.14.66,1.56,1.56,0,0,0,.16.7,1.35,1.35,0,0,0,.31.44h0l.11.09a.54.54,0,0,0,.16.1h.07l.15.06h3.54a.35.35,0,0,0,.35-.28.14.14,0,0,0,0-.09V39.4a.21.21,0,0,1,0-.11v-.07a.34.34,0,0,1,.31-.19h1.39a.6.6,0,0,0-.06.19,1.46,1.46,0,0,0,0,.2,1.22,1.22,0,0,0,0,.27A1.31,1.31,0,0,0,59,40v.25a.85.85,0,0,0,.09.22h0a1.43,1.43,0,0,0,.38.47h0l.18.1h.07Zm0-1.66a.57.57,0,0,0,0,.26c0,.35.21.66.45.66s.46-.31.46-.66a.74.74,0,0,0,0-.21h0a.89.89,0,0,0-.08-.17h0a.49.49,0,0,0-.12-.13h0l-.14-.08h-.11a.37.37,0,0,0-.3.19.84.84,0,0,0-.11.21Zm7.6,5.55a5,5,0,0,0-.89,2.42h-5a.37.37,0,0,1-.36-.37v-2.9a.37.37,0,0,1,.36-.36h5.55a.37.37,0,0,1,.37.36v.85ZM62.74,63.64a6.38,6.38,0,0,1-.09-1.85A5.54,5.54,0,0,1,65,57.59a.44.44,0,0,1,.51.06l.1.1a6.16,6.16,0,0,1-.4-2,2.91,2.91,0,0,1,0-.59H62.46l-1.77,7.7a3.84,3.84,0,0,1,1.38.26.4.4,0,0,1,.25.39.43.43,0,0,1,.46.15ZM60,67.45a5.37,5.37,0,0,0,0,2.67h.21a.49.49,0,0,1,.17,0,6,6,0,0,1,2.29-2.33h.06a5,5,0,0,0-.27-3,.38.38,0,0,0-.51-.17l0,0-.22.18a4.73,4.73,0,0,0-.8.87A5.27,5.27,0,0,0,60,67.46Zm-3.11-1.82a5.06,5.06,0,0,1,1.68-1.44,4.45,4.45,0,0,1,.94-.36,3.39,3.39,0,0,1,.9-.15h.33a.34.34,0,0,1,.34.36.33.33,0,0,1-.06.19h0a5.18,5.18,0,0,0-.78.84,2.92,2.92,0,0,1-.4.29,4.94,4.94,0,0,1-.49.3,4.65,4.65,0,0,1-2.19.52.37.37,0,0,1-.33-.39.36.36,0,0,1,.07-.18ZM57.15,58a4.51,4.51,0,0,0,.77.44.35.35,0,0,1,.2.44l-.31,1a.36.36,0,0,1-.45.24l-.07,0a4.17,4.17,0,0,1-1-.67.37.37,0,0,1-.07-.39l.34-.83a.38.38,0,0,1,.51-.17l0,0Zm-3-4.75a.36.36,0,0,1,.36-.36h3.4c-.06.13-.12.25-.17.39l-.52,1.24c-1,.1-2.06.21-3.07.37V53.26Zm6.28-6.1a.37.37,0,0,1-.36.37H54.51a.37.37,0,0,1-.36-.37v-2.9a.36.36,0,0,1,.36-.36h5.56a.36.36,0,0,1,.36.36h0Zm0,8.44a.31.31,0,0,1-.13-.06l-.08-.06h0a.33.33,0,0,1-.06-.27v-.05l.7-2.15a.2.2,0,0,1,.26-.12l0,0a1.43,1.43,0,0,1,.31.42v.06a1.09,1.09,0,0,1,.1.25h0a1.7,1.7,0,0,1,0,1l-.12.51v.22a.34.34,0,0,1-.34.28q-.31,0-.63,0Zm-.82,2.52a.37.37,0,0,1-.32-.41.13.13,0,0,1,0-.06l.34-1a.36.36,0,0,1,.42-.24,5,5,0,0,0,.66.08.38.38,0,0,1,.34.4s0,0,0,0l-.23,1a.32.32,0,0,1-.31.28,4.51,4.51,0,0,1-.9,0Zm-.81,2.46a.36.36,0,0,1-.3-.43.11.11,0,0,1,0,0l.31-1a.37.37,0,0,1,.42-.24,4.32,4.32,0,0,0,.88.1.37.37,0,0,1,.35.37.17.17,0,0,1,0,.07l-.2.86a.38.38,0,0,1-.29.28,4.58,4.58,0,0,1-1.17,0Zm-.36.8a.37.37,0,0,0-.42.24l-.62,1.86a.19.19,0,0,0,.12.24.16.16,0,0,0,.15,0,8.35,8.35,0,0,1,1.88-.77.2.2,0,0,0,.14-.14l.2-.88a.37.37,0,0,0-.28-.44h-.07a5.06,5.06,0,0,1-1.1-.09Zm-.3-6.92h0a.38.38,0,0,1,0-.15l.32-.73a.54.54,0,0,1,.08-.21l.06-.11V53.2a.76.76,0,0,1,.11-.14h0a1.69,1.69,0,0,1,1.06-.57.2.2,0,0,1,.2.18.13.13,0,0,1,0,.06l-.06.19h0l-.63,1.95a.38.38,0,0,1-.47.24l-.06,0a5.84,5.84,0,0,1-.53-.33.35.35,0,0,1-.14-.28Zm.51,1.46a.41.41,0,0,1,.2.45l-.34,1a.36.36,0,0,1-.45.23l-.07,0a5.21,5.21,0,0,1-.74-.48.37.37,0,0,1-.1-.42l.39-.92a.36.36,0,0,1,.47-.18l0,0a4.75,4.75,0,0,0,.59.31Zm5.41-4.23a.37.37,0,0,1-.36.37H61.49a2.26,2.26,0,0,0-.64-.32,2.45,2.45,0,0,0-2.18.32h-.43a.39.39,0,0,1-.37-.37v-3a.37.37,0,0,1,.37-.35h5.51a.37.37,0,0,1,.36.35v3Zm.84,0v-3a.36.36,0,0,1,.37-.35h1.32a6,6,0,0,0,.13,1.12,6.64,6.64,0,0,0,.69,1.88.39.39,0,0,0-.1-.08.41.41,0,0,0-.51,0,4.21,4.21,0,0,0-.66.74h-.87a.38.38,0,0,1-.37-.37Zm.75,1.21a5.77,5.77,0,0,0-.46,1.46c-.9,0-1.81-.07-2.7-.07a2.48,2.48,0,0,0-.29-1.39Zm-14.51-.84a.37.37,0,0,1-.36-.37v-3a.37.37,0,0,1,.36-.35h5.48a.37.37,0,0,1,.36.35v3a.37.37,0,0,1-.36.37Zm-2.17-5c.22-1,.41-1.9.59-2.88a.35.35,0,0,1,.36-.3h3a.37.37,0,0,1,.37.36v2.9a.38.38,0,0,1-.37.37H49.46a.38.38,0,0,1-.36-.38.17.17,0,0,1,0-.07Zm.61,1.3a.37.37,0,0,1,.36.35v3a.37.37,0,0,1-.36.37H48.17a.36.36,0,0,1-.36-.36.5.5,0,0,1,0-.12c.3-1,.58-2,.83-2.93A.35.35,0,0,1,49,48.4Zm-2.3,4.77a.35.35,0,0,1,.34-.25h5.27a.37.37,0,0,1,.37.36V55A57.22,57.22,0,0,0,46,56.68c.48-1.18.94-2.35,1.35-3.55ZM38.45,47l1.31-1.66h1.7L42.8,47Zm6.17,3A6.15,6.15,0,0,0,42,49.51a6.25,6.25,0,0,0-2.52.49l-1.43-1.53a.35.35,0,0,1,0-.49.36.36,0,0,1,.26-.11H46a.35.35,0,0,1,.37.33.39.39,0,0,1-.11.27L44.68,50Zm-4.75,12.7h0L39.49,62l.26-.15a4.69,4.69,0,0,1,1.8-.49,5.33,5.33,0,0,0-1.66,1.4Zm-4.17-5.2h0a1.5,1.5,0,0,1,1.14-.09A1.54,1.54,0,1,1,35,59.61a1.6,1.6,0,0,1-.18-.67,1.48,1.48,0,0,1,.83-1.39Zm-8.53-6h1.3V50.47a.18.18,0,0,1,.18-.18h3.46a.18.18,0,0,1,.18.18v1.06h5.27v.54l-.48,1.39h-.47a6.56,6.56,0,0,0-3.19.76h-5.5l-.75-2.14v-.54ZM10.17,53a.85.85,0,0,1-.09.38,1,1,0,0,1-.13.16h0a.44.44,0,0,1-.15.12.49.49,0,0,1-.17.06.73.73,0,0,1-.93-.47.82.82,0,0,1,0-.44v-.23l.12-.16.13-.1a.69.69,0,0,1,.19-.1h.35l.16.06h0a1.33,1.33,0,0,1,.19.14l.08.12a.44.44,0,0,1,.1.22A.74.74,0,0,1,10,53ZM10,51.51l.17.07.17.12a5,5,0,0,0,.34-.46,1,1,0,0,1,.11-.17,3.9,3.9,0,0,0,.19-.35,1.28,1.28,0,0,0,.11-.2c.06-.14.12-.28.17-.42l.06-.15c.07-.22.13-.44.18-.65a5.13,5.13,0,0,0-.4-3.36.37.37,0,0,0-.5-.14l0,0a4.75,4.75,0,0,0-1.16,1.44c-.07.15-.14.3-.21.47v.1c-.06.16-.11.32-.16.5v.06a6.06,6.06,0,0,1,1,3.11ZM12.46,60a.9.9,0,0,0,0-.4.74.74,0,0,0,0-.21,1.43,1.43,0,0,0-.14-.2l-.1-.09A.72.72,0,0,0,12,59h-.37l-.18.07h0l-.17.12-.11.13-.09.17v.23a.79.79,0,0,0,.07.37v.08a.71.71,0,0,0,.39.33.7.7,0,0,0,.6,0l.11,0c.06-.06.12-.1.17-.16h0a.56.56,0,0,0,.11-.2Zm0-1.72a5.36,5.36,0,0,0,.78-2.55,5,5,0,0,0-.9-3.24.36.36,0,0,0-.51-.05s0,0-.05.05a5,5,0,0,0-1.18,2.73h.06a6,6,0,0,1,1.45,2.92h.16l.19.09Zm3.15,7.89a.86.86,0,0,0,0-.39.68.68,0,0,0-.25-.37l-.12-.09L15,65.26h-.27a.67.67,0,0,0-.2,0h0a.56.56,0,0,0-.17.09.54.54,0,0,0-.15.15l-.09.13-.07.18v.1a.33.33,0,0,0,0,.14.76.76,0,0,0,.11.35l.06.07a.66.66,0,0,0,.44.28.77.77,0,0,0,.68-.18l.09-.1h0a.67.67,0,0,0,.1-.23Zm-.25-1.73a5.35,5.35,0,0,0,.41-2.65,5,5,0,0,0-1.37-3.09.36.36,0,0,0-.51,0l0,0a5.08,5.08,0,0,0-.78,2.86l.07.05A5.94,5.94,0,0,1,15,64.47h.18l.19.07Zm3.2-14.39a.43.43,0,0,1-.16,0H14.28a.37.37,0,0,1-.35-.37.36.36,0,0,1,.18-.3A58.18,58.18,0,0,1,27.2,44.63a.34.34,0,0,1,.41.27v0c.07.37.14.7.2,1a.36.36,0,0,1-.25.42,58.53,58.53,0,0,0-9,3.75Zm5.58,14a2.34,2.34,0,0,1,1-1.13.38.38,0,0,1,.52.13A2.32,2.32,0,0,1,26,64.53,4.48,4.48,0,0,1,24.76,67a.37.37,0,0,1-.52,0,.34.34,0,0,1-.11-.18,4.61,4.61,0,0,1,0-2.8Zm-1.26-3.61a4.47,4.47,0,0,0,0,2.8.37.37,0,0,0,.64.16l.3-.36v0a4.11,4.11,0,0,0,.92-2.1,2.28,2.28,0,0,0-.37-1.44.4.4,0,0,0-.52-.13,2.36,2.36,0,0,0-1,1.12Zm-1.09-.23a5.24,5.24,0,0,1-.16-3.43,2.32,2.32,0,0,1,1.3-1.29,2.38,2.38,0,0,1,.57,1.73,5.3,5.3,0,0,1-1.71,3Zm-2.71,2.63a2.3,2.3,0,0,1-.62-1.4.39.39,0,0,1,.33-.42,2.38,2.38,0,0,1,1.48.28A4.61,4.61,0,0,1,22,63.53a.36.36,0,0,1-.18.49.42.42,0,0,1-.22,0L21.23,64H21a4.19,4.19,0,0,1-2-1.09Zm-2.27,2a4.83,4.83,0,0,0-.28,3h.07a6,6,0,0,1,2.28,2.33.54.54,0,0,1,.18,0h.2a5.25,5.25,0,0,0,0-2.67,5,5,0,0,0-1.87-2.82.36.36,0,0,0-.51.12l0,0ZM19,56.78l-.38-.1h-.06a4.06,4.06,0,0,1-2-1.09A2.33,2.33,0,0,1,16,53.87a2.42,2.42,0,0,1,1.36,0,.11.11,0,0,1,0,.08A5.45,5.45,0,0,0,19,56.77Zm1.27-1a5,5,0,0,0-.08-2A4.07,4.07,0,0,0,20,53.2v-.06a2.82,2.82,0,0,0-.29-.39,2.59,2.59,0,0,0-1.08-.7,2.4,2.4,0,0,0-.44,1.27,2.17,2.17,0,0,0,0,.51,3.2,3.2,0,0,0,.24.74,5.14,5.14,0,0,0,.93,1.33l.17.18.4.37a.2.2,0,0,0,.27,0l0-.07a3.67,3.67,0,0,1,.07-.42.54.54,0,0,0,0-.18Zm.7,4.8a5.19,5.19,0,0,1-3.17-1.3,2.34,2.34,0,0,1-.6-1.73,2.36,2.36,0,0,1,1.8.22,5.18,5.18,0,0,1,2,2.81Zm-.26-7.74A5.3,5.3,0,0,1,21.11,56l.19-.21v0a4.13,4.13,0,0,0,.93-2.1,2.38,2.38,0,0,0-.58-1.73,2.5,2.5,0,0,0-1,.79l.07.11ZM42,68.84a3.52,3.52,0,0,1-1.44-.67L38.8,64.71l-1.13-2.24-.59-1.17a2.64,2.64,0,0,0,.47-.17h0a3,3,0,0,0,.38-.24l.47.93,1.37,2.75,2.16,4.29Zm1.18,1.35.39-.14a5.1,5.1,0,0,0,1.32-.76,6,6,0,0,1-1.5.41,4.74,4.74,0,0,1-2.15-.17l-.35-.13-.23-.11-.11-.05-.28-.18h0a3.61,3.61,0,0,1-.64-.53h0l-.3-.33h0a2,2,0,0,1-.24-.33v-.08c0-.08-.17-.28-.25-.43a5.13,5.13,0,0,1-.54-2h0l-.54-1.07h0A4.33,4.33,0,0,0,37.8,68a4.62,4.62,0,0,0,3,2.28,4,4,0,0,0,.5.1,4.57,4.57,0,0,0,.52,0,5.45,5.45,0,0,0,1.07-.08l.3-.07h.13Zm1.3,3.57h0L43.08,71h0a5.67,5.67,0,0,1-1,.18h0l1.52,3h0l.87-.44Zm5.6-4.82a.18.18,0,0,1,.09.25h0l-.11.22a13.06,13.06,0,0,1-13.26,6.67h-.22a.18.18,0,0,1-.16-.18.19.19,0,0,1,0-.07l.52-1.29c-.16.14-1,1-1.5,1.51a.17.17,0,0,0-.06.23.17.17,0,0,0,.06.06,12.12,12.12,0,0,0,9.45-.5,11.66,11.66,0,0,0,6-7.26.18.18,0,0,0-.13-.23h-.07l-1.82.19s.93.36,1.19.44Zm-5-9.78a.18.18,0,0,1,.23-.1h0l.14.08a.18.18,0,0,1,.06.24c-.24.35-1,1.36-1,1.36s.4-1.16.54-1.58Zm-.4-.94-1.07,2.63h0a5.49,5.49,0,0,0-4.13.35l-.26.14-.44-.87a58.48,58.48,0,0,1,6-2.38.58.58,0,0,0-.11.15ZM56,65.37a.37.37,0,0,1-.39.35.34.34,0,0,1-.17,0A4.31,4.31,0,0,1,54,64a5.05,5.05,0,0,1-.24-.53,4.16,4.16,0,0,1-.27-1.64.35.35,0,0,1,.37-.33.3.3,0,0,1,.18.06l.27.19a6.55,6.55,0,0,1,.64.65,4.7,4.7,0,0,1,.54.85A5.14,5.14,0,0,1,56,65.37Zm-.61-3.77a.18.18,0,0,1,0-.2l.35-.82a.36.36,0,0,1,.45-.21l.1.06a6,6,0,0,0,.94.57.34.34,0,0,1,.2.44h0l-.6,1.86a.19.19,0,0,1-.25.1.19.19,0,0,1-.1-.1,7.19,7.19,0,0,0-1.06-1.71Zm9.75,4a.75.75,0,0,0-.16-.15,1.18,1.18,0,0,0-.19-.11.67.67,0,0,0-.2,0h-.23l-.22.09-.12.09a.82.82,0,0,0-.24.37.86.86,0,0,0,0,.39l.06.17a.36.36,0,0,0,.11.16h0a.77.77,0,0,0,.34.22h0a.67.67,0,0,0,.2,0,.54.54,0,0,0,.18,0,.77.77,0,0,0,.44-.28.18.18,0,0,0,0-.07.62.62,0,0,0,.12-.35V66a.17.17,0,0,1,0-.1,1.42,1.42,0,0,0-.08-.18l-.08-.13Zm-.79-1.12a6,6,0,0,1,1.86-2.69l.06,0a4.91,4.91,0,0,0-.78-2.86.35.35,0,0,0-.48-.11l-.06,0a5,5,0,0,0-1.37,3.09,5.48,5.48,0,0,0,.4,2.65l.2-.07Zm2.91-6.25a6.07,6.07,0,0,1,1.45-2.92h0a4.94,4.94,0,0,0-1.17-2.73.36.36,0,0,0-.51,0l0,0a2,2,0,0,0-.26.38,5,5,0,0,0-.55,1.5l-.06.4h0a3.09,3.09,0,0,0,0,.43,4.34,4.34,0,0,0,0,.51,5.15,5.15,0,0,0,.78,2.55l.18-.09h.17Zm1.17,1.38v-.09a1,1,0,0,0-.1-.17h0l-.1-.11a.66.66,0,0,0-.17-.12h0l-.17-.07h-.43a.82.82,0,0,0-.2.12l-.11.09a.82.82,0,0,0-.12.2.83.83,0,0,0-.06.21.68.68,0,0,0,0,.4l.09.16a.86.86,0,0,0,.13.14h0a.45.45,0,0,0,.17.11.42.42,0,0,0,.19.06h.25l.16,0a.77.77,0,0,0,.4-.33v-.08a.78.78,0,0,0,.06-.37.33.33,0,0,0,0-.14Zm1.46-7.31H70a.69.69,0,0,1,.19.1l.13.1.12.16v.09a.33.33,0,0,1,0,.14.66.66,0,0,1,0,.44.76.76,0,0,1-.34.41.78.78,0,0,1-.6.06.29.29,0,0,1-.13,0,.76.76,0,0,1-.19-.12h0a.37.37,0,0,1-.13-.17.64.64,0,0,1-.1-.38.74.74,0,0,1,0-.21,1.47,1.47,0,0,1,.1-.22l.09-.12.18-.14h.06l.15-.06h.18Zm-2.16-5.15h0c0,.19-.06.39-.08.59a.14.14,0,0,0,0,.09q0,.3,0,.6a8.27,8.27,0,0,0,.12,1,5.38,5.38,0,0,0,1.16,2.4l.17-.12.16-.07a6.26,6.26,0,0,1,1-3.11l.06-.06c-.06-.18-.12-.34-.18-.5v-.13l-.22-.46A4.5,4.5,0,0,0,68.73,46a.26.26,0,0,0-.15-.07h-.24a.52.52,0,0,0-.1.11,5,5,0,0,0-.21.48v.12a4.42,4.42,0,0,0-.14.52Zm.93-2.24a.57.57,0,0,0-.13-.08v-.1l.13.18Zm-.49-4.46a4.88,4.88,0,0,0,0,1.08,5,5,0,0,0,.27,1.22c0,.13.1.24.15.37a4.63,4.63,0,0,0,.36.7,5.13,5.13,0,0,0,1,1.18l.16-.15.14-.08a6,6,0,0,1,.59-3.21v-.07c-.06-.14-.13-.28-.2-.41h0c-.07-.14-.14-.25-.22-.38a4.69,4.69,0,0,0-1.46-1.48.32.32,0,0,0-.27,0,.26.26,0,0,0-.15.07h0a.21.21,0,0,0-.1.14,2.35,2.35,0,0,0-.14.45V40a2.76,2.76,0,0,0-.06.4v.09Zm.08-4.37a5,5,0,0,1-.48-3.34.37.37,0,0,1,.45-.27l0,0a4.94,4.94,0,0,1,2.17,2,.11.11,0,0,1,0,.08,6.22,6.22,0,0,0-.15,3.26l-.13.1a1.07,1.07,0,0,0-.14.16,5.33,5.33,0,0,1-1.74-2Zm-1.1-6.61a5.11,5.11,0,0,1-.94-3.23.35.35,0,0,1,.38-.33h.08a4.9,4.9,0,0,1,2.43,1.69.11.11,0,0,1,0,.08,6,6,0,0,0,.31,3.25l-.12.12a1.74,1.74,0,0,0-.11.18,5.25,5.25,0,0,1-2-1.77Zm-2-6.32a5.18,5.18,0,0,1-1.41-3.06.37.37,0,0,1,.37-.39h0A5,5,0,0,1,66.75,21v.08a6.26,6.26,0,0,0,.78,3.17l-.1.14-.08.2a5.5,5.5,0,0,1-2.25-1.45Zm-2.64-5.68A4.69,4.69,0,0,1,60.75,15a.37.37,0,0,1,.26-.44h.09a4.38,4.38,0,0,1,1.08.14.83.83,0,0,0,.21.06,5.32,5.32,0,0,1,1.2.58v.06a5.69,5.69,0,0,0,1.19,2.77,1,1,0,0,0-.11.29,5,5,0,0,1-2.21-1Zm-3.39-4.85a4.4,4.4,0,0,1-2-2,.36.36,0,0,1,.16-.47l.12,0a4.23,4.23,0,0,1,2.38.34,0,0,0,0,0,0,0,5.34,5.34,0,0,0,1.53,2.42.21.21,0,0,0,0,.11v.14a4.82,4.82,0,0,1-2.2-.56Zm-3.9-4a4.07,4.07,0,0,1-2-1.41.35.35,0,0,1,.07-.5.21.21,0,0,1,.1-.06,4.05,4.05,0,0,1,2.13-.06h0a5,5,0,0,0,1.79,1.95v.2a4.36,4.36,0,0,1-2.06-.16ZM51.66,3.55c-.06-.07-.12-.12-.17-.19l-.22-.3a3.57,3.57,0,0,1-.64-1.72A.36.36,0,0,1,51,1a.28.28,0,0,1,.13,0,3.77,3.77,0,0,1,1.79,1.25,3.91,3.91,0,0,1,.8,1.68h-.12a1.16,1.16,0,0,0-.39.26,1.94,1.94,0,0,0-.21.29,3.81,3.81,0,0,1-1.3-.94ZM51,5.67a4,4,0,0,0,1.84-.2.09.09,0,0,0,0-.07V5.33a4.75,4.75,0,0,1-2-1.45h0A3.82,3.82,0,0,0,49,4.26a.36.36,0,0,0-.16.47.31.31,0,0,0,.09.11,3.69,3.69,0,0,0,2,.84ZM49,2.39a.27.27,0,0,1,.12-.09.45.45,0,0,1,.5,0h.06a.5.5,0,0,1,0,.68.53.53,0,0,1-.33.15A.45.45,0,0,1,49,3a.39.39,0,0,1-.08-.1A.5.5,0,0,1,49,2.32Zm5,2.28h.15a.27.27,0,0,1,.15,0A.41.41,0,0,1,54.5,5h0a.49.49,0,0,1-.37.57h0a.53.53,0,0,1-.35-.07l-.11-.11a.43.43,0,0,1-.11-.21V5a.48.48,0,0,1,.19-.35A.72.72,0,0,1,54,4.6Zm1.69-.88A3.89,3.89,0,0,0,56,5.89a2.11,2.11,0,0,0,.16.34l.12.21a4.22,4.22,0,0,0,.6.79,3.11,3.11,0,0,0,.65.55,1,1,0,0,1,.31-.28,1.12,1.12,0,0,1,.42-.18h.19a4.22,4.22,0,0,0-.51-2,4,4,0,0,0-1.75-1.78.37.37,0,0,0-.48.17.45.45,0,0,0,0,.11Zm2.91,4.32h.24a.36.36,0,0,1,.16.11.39.39,0,0,1,.13.2.61.61,0,0,1,0,.19.55.55,0,0,1-.54.56h-.12A.51.51,0,0,1,58.1,9a.09.09,0,0,1,0-.07A.48.48,0,0,1,58,8.63a.38.38,0,0,1,0-.15.53.53,0,0,1,.28-.34.51.51,0,0,1,.24-.07Zm2-.67a4.3,4.3,0,0,0-.1,2.41,1.4,1.4,0,0,0,.1.39,1.19,1.19,0,0,1,.08.2,4.53,4.53,0,0,0,1.1,1.72h0a1.41,1.41,0,0,1,.8-.32.57.57,0,0,1,.26,0,4.6,4.6,0,0,0-.15-2.27,4.43,4.43,0,0,0-1.59-2.28.35.35,0,0,0-.5.08.41.41,0,0,0,0,.09ZM63,12.72a.65.65,0,0,1,.3.37.76.76,0,0,1,0,.3.64.64,0,0,1-.72.52h0l-.15-.06h0a.66.66,0,0,1-.3-.36.76.76,0,0,1,0-.3.69.69,0,0,1,.05-.13h0V13a.7.7,0,0,1,.28-.23h.32l.18.07ZM66.81,19a.76.76,0,0,1-.36.39.64.64,0,0,1-.54,0,.68.68,0,0,1-.23-.14.69.69,0,0,1-.16-.22.6.6,0,0,1-.06-.19v-.07a.61.61,0,0,1,0-.27v-.16l.09-.11a.66.66,0,0,1,.17-.12h.54l.13.06h0a.55.55,0,0,1,.2.25.29.29,0,0,1,0,.13.9.9,0,0,1,0,.4Zm-1.89-6.74a4.55,4.55,0,0,0-.54,2.56v.61a4.73,4.73,0,0,0,.22.82,4.34,4.34,0,0,0,.65,1.22l.09,0h.08a.92.92,0,0,1,.32-.1,1.14,1.14,0,0,1,.45,0,1.5,1.5,0,0,1,.3,0,5.06,5.06,0,0,0,.24-2.41,4.66,4.66,0,0,0-1.27-2.74.37.37,0,0,0-.52,0l0,.06ZM69.5,25.59a.79.79,0,0,0,.09-.52.11.11,0,0,1,0-.08.79.79,0,0,0-.2-.33.39.39,0,0,0-.1-.08.1.1,0,0,1-.08-.06L69,24.44h-.16a.54.54,0,0,0-.18,0,.7.7,0,0,0-.2.08.66.66,0,0,0-.17.12.76.76,0,0,0-.11.14h0a.9.9,0,0,0-.08.23v.14a.86.86,0,0,0,.12.44,1.06,1.06,0,0,0,.29.27.89.89,0,0,0,.6.07.79.79,0,0,0,.46-.38Zm-1.93-4.9A5,5,0,0,1,68.67,18a.37.37,0,0,1,.52-.05s0,0,0,.05a5.09,5.09,0,0,1,1,3.22,5.31,5.31,0,0,1-.7,2.58,1.45,1.45,0,0,0-.35-.12,1.62,1.62,0,0,0-.44,0,1.2,1.2,0,0,0-.42.07l-.16.07a5.33,5.33,0,0,1-.54-1.65,3.42,3.42,0,0,1-.06-.78v-.65Zm3.87,4.18a.36.36,0,0,1,.51,0L72,25a5,5,0,0,1,.51,3.33,5.42,5.42,0,0,1-1.08,2.45,1.45,1.45,0,0,0-.32-.18,1.65,1.65,0,0,0-.44-.1,1.15,1.15,0,0,0-.37,0h-.23a5.24,5.24,0,0,1-.28-1.71,4.9,4.9,0,0,1,.06-.77.61.61,0,0,1,0-.19,2.71,2.71,0,0,1,.09-.41,4.88,4.88,0,0,1,1.49-2.56Zm1.66,7.2a.36.36,0,0,1,.5.09.16.16,0,0,1,0,.07,5.12,5.12,0,0,1,0,3.37,5.32,5.32,0,0,1-1.41,2.28,1.29,1.29,0,0,0-.3-.22,1.62,1.62,0,0,0-.41-.17,2.94,2.94,0,0,0-.42,0h-.18a5.08,5.08,0,0,1,0-1.74,6.74,6.74,0,0,1,.17-.75,1.21,1.21,0,0,1,0-.18,1.47,1.47,0,0,1,.14-.4,5,5,0,0,1,1.83-2.32ZM70.87,45.35a.34.34,0,0,0-.2,0l-.15.08h0a.65.65,0,0,0-.16.17.83.83,0,0,0-.08.12.78.78,0,0,0-.06.45.67.67,0,0,0,.14.36,1.29,1.29,0,0,0,.16.17h0a.72.72,0,0,0,.2.09.82.82,0,0,0,.7-.11.81.81,0,0,0,.29-.45.86.86,0,0,0,0-.45l-.06-.13v-.08l-.19-.1-.15-.09a.62.62,0,0,0-.19-.07h-.23ZM70,32.69a.75.75,0,0,0,.58.16.78.78,0,0,0,.52-.3.82.82,0,0,0,.17-.5V32a.93.93,0,0,0-.13-.35l-.1-.11L71,31.45a.56.56,0,0,0-.17-.09h-.53a1.18,1.18,0,0,0-.19.11l-.13.11h0a.45.45,0,0,0-.12.21v.14a.89.89,0,0,0,0,.23.83.83,0,0,0,.06.21.73.73,0,0,0,.24.31Zm.41,6.13a.19.19,0,0,1,0-.13.65.65,0,0,1,.15-.18h0a.42.42,0,0,1,.14-.09.7.7,0,0,1,.2-.08h.22a.67.67,0,0,1,.2,0l.16.07.15.12.06.07a.91.91,0,0,1,.16.48.11.11,0,0,1,0,.08.85.85,0,0,1-.22.48.74.74,0,0,1-.56.22.79.79,0,0,1-.56-.23.82.82,0,0,1-.22-.56,1,1,0,0,1,0-.24Zm3.34.62a5,5,0,0,0-2.11,2c-.07.13-.14.26-.2.39a.87.87,0,0,0-.07.17,4.93,4.93,0,0,0-.27.73,3.41,3.41,0,0,0-.1.46,5.58,5.58,0,0,0-.08.57v.12a5.23,5.23,0,0,0,0,.56h.18a1.45,1.45,0,0,1,.41.1,1.41,1.41,0,0,1,.38.21,3.45,3.45,0,0,1,.28.26A5.29,5.29,0,0,0,73.88,43a5,5,0,0,0,.41-3.35.39.39,0,0,0-.48-.25l0,0ZM32.61,1.06a3.72,3.72,0,0,1,2.19,0A.36.36,0,0,1,35,1.5a.75.75,0,0,1-.07.12,3.69,3.69,0,0,1-1.88,1.13,3.86,3.86,0,0,1-1.85.06,1.31,1.31,0,0,0-.24-.9A3.91,3.91,0,0,1,32.61,1ZM48,2.85a3.86,3.86,0,0,1-1.85-.06,3.69,3.69,0,0,1-1.88-1.13.34.34,0,0,1,0-.49.26.26,0,0,1,.11-.07,3.72,3.72,0,0,1,2.19,0A4,4,0,0,1,48.27,2a1.22,1.22,0,0,0-.25.9ZM74.11,45.79a4.44,4.44,0,0,0-1.55.44,2.29,2.29,0,0,0,0-.37,6.09,6.09,0,0,0,2.1-2.48,5.51,5.51,0,0,0,.13-4.79.43.43,0,0,0-.47-.22,4.3,4.3,0,0,0-1.5.66,1.55,1.55,0,0,0-.07-.43,6,6,0,0,0,1.75-2.74,5.5,5.5,0,0,0-.5-4.77.43.43,0,0,0-.49-.16,4.73,4.73,0,0,0-1.39.85A2.4,2.4,0,0,0,72,31.4a6.22,6.22,0,0,0,1.35-3,5.53,5.53,0,0,0-1.16-4.65.42.42,0,0,0-.51-.08,4.19,4.19,0,0,0-1.28,1,1.4,1.4,0,0,0-.2-.43,6.15,6.15,0,0,0,.9-3.13,5.55,5.55,0,0,0-1.84-4.43.45.45,0,0,0-.52,0,4.84,4.84,0,0,0-1.2,1.35,1.41,1.41,0,0,0-.23-.35,5.6,5.6,0,0,0,.35-3A5.14,5.14,0,0,0,65.31,11a.44.44,0,0,0-.51.07,4.33,4.33,0,0,0-.87,1.36,1.11,1.11,0,0,0-.26-.27,5.41,5.41,0,0,0-.14-2.85,4.84,4.84,0,0,0-2.79-3.19.46.46,0,0,0-.5.15,4.26,4.26,0,0,0-.61,1.44h0a1.94,1.94,0,0,0-.29-.21,5.21,5.21,0,0,0-.61-2.57,4.52,4.52,0,0,0-3.11-2.47.43.43,0,0,0-.46.25A3.8,3.8,0,0,0,54.85,4a1.11,1.11,0,0,0-.29-.14,4.55,4.55,0,0,0-1-2.21A4.21,4.21,0,0,0,50.28,0a.42.42,0,0,0-.4.32,3.42,3.42,0,0,0-.05,1.15,1.47,1.47,0,0,0-.83,0A4.64,4.64,0,0,0,46.88.26a4.24,4.24,0,0,0-3.64.55.45.45,0,0,0-.13.5A4.2,4.2,0,0,0,46,3.62a5.29,5.29,0,0,0,1.31.17,4.2,4.2,0,0,0,1.12-.15h0a4.17,4.17,0,0,0-.62.49.42.42,0,0,0-.06.51,4.22,4.22,0,0,0,3.17,1.88h.6a3.53,3.53,0,0,0,.46,0,.57.57,0,0,0,0,.26,4.58,4.58,0,0,0,3,2.63,5.71,5.71,0,0,0,1.23.25.35.35,0,0,0-.08.31,4.81,4.81,0,0,0,2.61,3.35,6.3,6.3,0,0,0,1.33.51.44.44,0,0,0-.19.36A5.1,5.1,0,0,0,62,18.09a6.47,6.47,0,0,0,1.29.77.41.41,0,0,0-.37.35,5.56,5.56,0,0,0,1.59,4.51A6.51,6.51,0,0,0,66.11,25H66a.44.44,0,0,0-.42.3,5.52,5.52,0,0,0,.9,4.7,6.78,6.78,0,0,0,1.4,1.48l-.17-.05a.44.44,0,0,0-.46.23,5.49,5.49,0,0,0,.24,4.79,6.23,6.23,0,0,0,1.27,1.74l-.24-.1a.43.43,0,0,0-.49.17.41.41,0,0,1-.07.11h-7c-.29-.32-.59-.67-.91-1l.51-.28a5.06,5.06,0,0,1,2.08-.61,6.57,6.57,0,0,0,2.21-.58.18.18,0,0,0,.11-.19v-.35a.18.18,0,0,0-.2-.16h0a6.73,6.73,0,0,1-2.23.28,6.17,6.17,0,0,0-2.41.28,7.09,7.09,0,0,0-1,.38c-.39-.45-.76-.92-1.11-1.37l6-4.51a1.85,1.85,0,0,0-.12-.46.17.17,0,0,0-.2-.13l-.05,0-6.7,3.66a7.66,7.66,0,0,1-.74-1.27.06.06,0,0,0,0-.06,6.94,6.94,0,0,0,.79-2.39,7,7,0,0,1,1-2.48,6.66,6.66,0,0,1,1.8-2.08,7,7,0,0,0,1.75-1.94.19.19,0,0,0,0-.18.94.94,0,0,0-.14-.33.18.18,0,0,0-.25-.05.12.12,0,0,0-.05.05,11.21,11.21,0,0,1-2.11,1.71,7.93,7.93,0,0,0-2.34,1.93A7.1,7.1,0,0,0,55.1,28.8a5.87,5.87,0,0,1-.42,1,3.68,3.68,0,0,0-2-.91c2.14-4.58,5.16-11,5.55-11.83a.15.15,0,0,0,0-.16c-.08-.1-.14-.21-.21-.31a.19.19,0,0,0-.27,0l0,0-6.2,9.73L50.59,24V22.89a12.43,12.43,0,0,1,.46-3.54,17.66,17.66,0,0,1,3.47-6.87.18.18,0,0,0,0-.24L54.27,12A.18.18,0,0,0,54,12h0c-2,2.08-3.72,4-4.61,6.78-.17.45-.3.86-.4,1.22l-1.3-3.22L49,8.08a.18.18,0,0,0-.09-.19l-.31-.17a.18.18,0,0,0-.24.07s0,0,0,0c-.25,1-.85,3.45-1.6,6.51l-1.8-4.43a1.37,1.37,0,0,0,.19-1.34,1.28,1.28,0,0,0-.54-.65,3.44,3.44,0,0,0-1.82-2.42.38.38,0,0,0-.52.07.44.44,0,0,0-.07.19,3.72,3.72,0,0,0,.35,3,1.31,1.31,0,0,0,.06.83.86.86,0,0,0,.2.33,8.76,8.76,0,0,1-3.24.54,13.79,13.79,0,0,0-1.82.12l-.54-4.74A.18.18,0,0,0,37,5.7l-.36.07a.17.17,0,0,0-.15.18l0,5a8.57,8.57,0,0,0-1.74.8,6.67,6.67,0,0,0-2.85,2.93A14.85,14.85,0,0,1,31.61,12a17.36,17.36,0,0,0-.47-4,.2.2,0,0,0-.25-.14h0L30.56,8a.17.17,0,0,0-.09.18,16.44,16.44,0,0,1,0,3.84,15.37,15.37,0,0,0,.07,4.23,1.19,1.19,0,0,0,.06.47,6.45,6.45,0,0,1-1.84,1.53l-.49.26c-1.06-2.58-2-5-2.63-6.47a.19.19,0,0,0-.24-.1l0,0-.25.25a.22.22,0,0,0-.05.19l1.82,6.65a9.83,9.83,0,0,1-2.59.32,9.59,9.59,0,0,0-1.67.1A15.48,15.48,0,0,0,21.46,17a.18.18,0,0,0-.26,0l-.05,0-.2.3a.25.25,0,0,0,0,.17,12,12,0,0,1,.65,2.11,8,8,0,0,0-2.16.9.52.52,0,0,0-.25.63L21,25.92l.52,1.4L18,23.67a.17.17,0,0,0-.24,0,.22.22,0,0,0,0,.08c-.05.11-.1.22-.14.33a.17.17,0,0,0,0,.19L23,31.31c.34.9.87,2.31,1.09,2.92a.55.55,0,0,0,.72.27l0,0,.45-.2,1.61,2.09s-.92-.61-1.52-.93a22.88,22.88,0,0,0-2.72-1.23A21.33,21.33,0,0,1,20,33,5.48,5.48,0,0,1,17.9,31.2,6,6,0,0,0,16,29.47a.18.18,0,0,0-.24.05.08.08,0,0,0,0,.05l-.09.35a.17.17,0,0,0,0,.19A5.94,5.94,0,0,1,17,32a6.37,6.37,0,0,0,2,2.37A14,14,0,0,0,21.91,36a12.85,12.85,0,0,1,2.76,1.59,13.06,13.06,0,0,1,1.22,1.13L14.78,35a.2.2,0,0,0-.24.13h0v.36a.18.18,0,0,0,.1.19l10.72,5.17c-4-1.83-4.31-.33-7.33,0a2.9,2.9,0,0,1-2-.51,3.85,3.85,0,0,0-1.77-.57.18.18,0,0,0-.19.15v.39a.18.18,0,0,0,.13.18,4,4,0,0,1,1.46.84c.2.16.41.3.64.46H12a5.19,5.19,0,0,0-.67-3.59.43.43,0,0,0-.49-.17l-.25.1a6.47,6.47,0,0,0,1.28-1.74,5.55,5.55,0,0,0,.24-4.79.45.45,0,0,0-.47-.23l-.16.08A6.35,6.35,0,0,0,12.86,30a5.59,5.59,0,0,0,.9-4.7.44.44,0,0,0-.42-.3H13.2a6.51,6.51,0,0,0,1.61-1.25,5.59,5.59,0,0,0,1.59-4.51.41.41,0,0,0-.37-.35,6,6,0,0,0,1.29-.77,5.1,5.1,0,0,0,2.14-3.9.41.41,0,0,0-.2-.36,6.18,6.18,0,0,0,1.34-.51A4.85,4.85,0,0,0,23.21,10a.39.39,0,0,0-.08-.31,5.71,5.71,0,0,0,1.23-.25,4.56,4.56,0,0,0,3-2.63.39.39,0,0,0,0-.26h1.07a4.25,4.25,0,0,0,3.18-1.88.46.46,0,0,0-.07-.51,4.26,4.26,0,0,0-.63-.49h0A4.33,4.33,0,0,0,32,3.81a4.74,4.74,0,0,0,1.3-.17,4.21,4.21,0,0,0,2.87-2.31.41.41,0,0,0-.14-.5A4.24,4.24,0,0,0,32.43.28a4.56,4.56,0,0,0-2.11,1.2,1.28,1.28,0,0,0-.82,0A3.72,3.72,0,0,0,29.43.33.41.41,0,0,0,29,0,4.19,4.19,0,0,0,25.76,1.7a4.69,4.69,0,0,0-1,2.21,1.47,1.47,0,0,0-.28.14,3.61,3.61,0,0,0-.32-1.37.42.42,0,0,0-.45-.25A4.52,4.52,0,0,0,20.6,4.9,5,5,0,0,0,20,7.47a1.94,1.94,0,0,0-.29.21h0a4,4,0,0,0-.61-1.44.42.42,0,0,0-.48-.15A4.89,4.89,0,0,0,15.8,9.28a5.41,5.41,0,0,0-.14,2.85,1.27,1.27,0,0,0-.25.27A4.33,4.33,0,0,0,14.54,11,.44.44,0,0,0,14,11a5.14,5.14,0,0,0-2.35,3.78,5.6,5.6,0,0,0,.35,3,1.21,1.21,0,0,0-.24.35,4.8,4.8,0,0,0-1.19-1.35.45.45,0,0,0-.52,0,5.55,5.55,0,0,0-1.84,4.43,6.06,6.06,0,0,0,.9,3.13,1.4,1.4,0,0,0-.2.43,4.47,4.47,0,0,0-1.28-1,.42.42,0,0,0-.51.08,5.52,5.52,0,0,0-1.22,4.7,6.08,6.08,0,0,0,1.35,3,2.4,2.4,0,0,0-.12.38A4.73,4.73,0,0,0,5.77,31a.43.43,0,0,0-.49.16,5.5,5.5,0,0,0-.51,4.77,6.19,6.19,0,0,0,1.75,2.74,1.54,1.54,0,0,0-.06.43A4.43,4.43,0,0,0,5,38.44a.41.41,0,0,0-.46.22,5.51,5.51,0,0,0,.12,4.79,6.19,6.19,0,0,0,2.11,2.48,1.15,1.15,0,0,0,0,.37,4.44,4.44,0,0,0-1.55-.44.41.41,0,0,0-.43.27,5.5,5.5,0,0,0,.74,4.74,6.08,6.08,0,0,0,2.41,2.2,1.14,1.14,0,0,0,0,.45,4.91,4.91,0,0,0-1.62-.21.42.42,0,0,0-.39.34,5.53,5.53,0,0,0,1.46,4.57A6.1,6.1,0,0,0,10.05,60a2.34,2.34,0,0,0,.09.38,4.36,4.36,0,0,0-1.61,0,.42.42,0,0,0-.34.39,5.53,5.53,0,0,0,2.1,4.31,5.93,5.93,0,0,0,3,1.39,1.16,1.16,0,0,0,.18.43,4.6,4.6,0,0,0-1.6.31.41.41,0,0,0-.25.44,5.47,5.47,0,0,0,2.79,3.9,6.29,6.29,0,0,0,3.05.89h.06a1.64,1.64,0,0,0,1.39.93H19a1.7,1.7,0,0,0,.59-.1A28.85,28.85,0,0,0,36,82.17a4.29,4.29,0,0,0,.13.6A9.74,9.74,0,0,1,30,87.14a11.57,11.57,0,0,1-1.56.28.38.38,0,0,0-.32.42.34.34,0,0,0,.09.19l.44.48a.35.35,0,0,0,.32.12c.45-.07.9-.16,1.34-.27a13,13,0,0,0,4-1.8,8.84,8.84,0,0,0,2.45-2.35v-.15a4,4,0,0,0,1,.8,9.29,9.29,0,0,1-2.59,2.6,1.64,1.64,0,0,1-.22.14l-.28.18L34.2,88l-.39.21-.15.08a13.52,13.52,0,0,1-2.61,1c-.32.08-.64.14-1,.2a.36.36,0,0,0-.28.42.31.31,0,0,0,.09.18l.35.4a.37.37,0,0,0,.33.11,11.14,11.14,0,0,0,1.15-.23,10.77,10.77,0,0,0,7.07-5.12,4.05,4.05,0,0,0,1.3,0,10.82,10.82,0,0,0,7.06,5.11c.4.1.78.17,1.16.23a.37.37,0,0,0,.33-.11l.36-.4a.37.37,0,0,0,0-.52.3.3,0,0,0-.16-.08l-1-.2a14.2,14.2,0,0,1-2.61-1L45,88.23l-.4-.21-.43-.25-.28-.18a1.64,1.64,0,0,1-.22-.14,9.81,9.81,0,0,1-2.57-2.57,3.3,3.3,0,0,0,1-.78h0v.07a8.61,8.61,0,0,0,2.46,2.35,13,13,0,0,0,4,1.8c.45.11.9.2,1.34.27a.35.35,0,0,0,.32-.12l.44-.48a.37.37,0,0,0,0-.52.34.34,0,0,0-.19-.09,11.57,11.57,0,0,1-1.56-.28,9.86,9.86,0,0,1-6.14-4.26,2.92,2.92,0,0,0,.16-.71,28.77,28.77,0,0,0,16.49-8.86,1.71,1.71,0,0,0,.55.09H60a1.64,1.64,0,0,0,1.39-.93h.06a6.17,6.17,0,0,0,3.07-.88,5.51,5.51,0,0,0,2.8-3.9.4.4,0,0,0-.26-.44,4.37,4.37,0,0,0-1.59-.31,1.63,1.63,0,0,0,.18-.43,5.91,5.91,0,0,0,2.94-1.39,5.45,5.45,0,0,0,2.1-4.31.42.42,0,0,0-.33-.39,4.41,4.41,0,0,0-1.62,0,1.64,1.64,0,0,0,.1-.38,6,6,0,0,0,2.71-1.81A5.53,5.53,0,0,0,73,53.62a.42.42,0,0,0-.39-.34,4.91,4.91,0,0,0-1.62.21,1.73,1.73,0,0,0,0-.45,6,6,0,0,0,2.4-2.2,5.54,5.54,0,0,0,.75-4.74.42.42,0,0,0-.09-.32Z"/><path class="cls-1" d="M36.63,80.72a1,1,0,1,0,1,1A1,1,0,0,0,36.63,80.72Z"/></svg>